<?xml version="1.0" encoding="utf-8"?>
<!-- Generator: Adobe Illustrator 27.0.1, SVG Export Plug-In . SVG Version: 6.00 Build 0)  -->
<svg version="1.1" id="LOGO" xmlns="http://www.w3.org/2000/svg" xmlns:xlink="http://www.w3.org/1999/xlink" x="0px" y="0px"
	 viewBox="0 0 230.07 111.08" style="enable-background:new 0 0 230.07 111.08;" xml:space="preserve">
<style type="text/css">
	.st0{fill:#0055A1;}
	.st1{fill:#ED1C24;}
	.st2{fill:#FFFFFF;}
</style>
<rect x="0.02" y="-0.46" class="st0" width="230.05" height="111.54"/>
<path class="st1" d="M115.97,76.51c55.5,0,99.51-0.85,99.51-1.61c0-0.77-44.18-2.13-99.68-2.13c-55.5,0-101.3,1.37-101.3,2.13
	C14.5,75.67,60.47,76.51,115.97,76.51z"/>
<g>
	<g>
		<path class="st2" d="M171.1,64.19c0.15,0.1-0.38,0.63-0.18,0.72c-4.51-0.02-10.46-1.01-9.37-4.3l1.94-6.31
			c-2.51,0.61-4.73,0.81-7.46,1.13c-3.96,0.45-7.97,0.53-8.81,3.03c-0.85,2.54,2.9,2.98,7.1,2.98c1.66,0,4.11-0.32,5.85-0.57
			c0.26-0.03-0.02,0.75,0.23,0.71l-5.7,3.07c-1.39,0.13-3.08,0.25-4.43,0.25c-8.01,0-13.07-3.03-11.89-6.41
			c2.79-8.02,25.62-5.05,26.56-8.59c0.46-1.7-3.52-2.23-6.46-2.23c-3.83,0-7.3,0.79-10.97,1.6c-0.2,0.04-0.22-0.71-0.42-0.66
			l7.24-4.15l5.24-0.25c8.85,0.12,14.61,1.65,13.04,6.6l-2.05,6.16C169.54,60.01,168.56,63.06,171.1,64.19z"/>
		<g>
			<path class="st2" d="M207.93,59.86c-2.55,1-6.16,1.57-8.7,1.57c-8.8,0-15.04-2.74-13.47-7.46c1.3-3.89,7.38-6.3,15.06-6.3
				c3.56,0,7.15,0.65,8.99,2.01h0.51l1.64-4.93c-2.66-0.33-6.05-0.56-8.9-0.56c-11.96,0-24.13,3.8-26.48,10.84
				c-1.79,5.33,6.61,9.86,18.81,9.86c3.48,0,7.6-0.21,11.14-0.87L207.93,59.86z"/>
		</g>
		<path class="st2" d="M97.61,64.3c3.42,0.27,8.21,0.61,12.6,0.61c14.41,0,25.06-4.53,27.21-10.96c1.88-5.62-4.31-9.6-13.35-9.6
			c-1.9,0-4.65,0.11-6.57,0.44l-5.56,4.11c2.33-0.58,4.8-0.89,7.33-0.89c8,0,10.45,2.7,9.12,6.68c-1.36,4.06-6.9,6.59-15.62,6.59
			c-2.21,0-3.85-0.14-5.9-0.43l8.3-24.87l-0.71,0.12c-1.32,0.66-3.35,0.53-5.26,0.53h-2.34L97.61,64.3z"/>
		<path class="st2" d="M73.25,64.37h11.06l0.25-0.75c-3.14-1.02-2.29-2.17-1.66-4.06l1.92-5.87c1.41-4.23,4.14-5.49,10.15-5.49
			c1.35,0,2.92,0.39,3.63,0.88l1.58-4.73l-3.31-0.15c-3.95,0-7.07,1.02-9.69,2.55l0.84-2.55h-0.76c-1.27,0.5-3.19,0.54-5.01,0.54
			H79.8L73.25,64.37z"/>
	</g>
	<g>
		<path class="st2" d="M57.33,37.62c0.87-2.15,1.78-4.39,4.39-5.35l-0.03-0.81l-8.85,0.01l-9.62,26.72L24.73,31.54L14.4,31.59v0.81
			c3.49,1.44,4.46,3.2,5.97,5.35L35.5,59.29c2.3,3.34,7.67,6.34,12.42,5.69L57.33,37.62z"/>
	</g>
	<g>
		<path class="st2" d="M57.02,64.37h11.01l0.28-0.74c-3.14-1.03-2.29-2.3-1.66-4.18l5.17-15.36h-0.76c-1.89,0.2-3.75,0.2-5.57,0.2
			h-1.82L57.02,64.37z"/>
	</g>
	<polygon class="st1" points="65.78,37.76 73.82,37.76 75.87,31.76 67.75,31.76 	"/>
</g>
</svg>
